{"title":"Curious.George.3.Back.to.the.Jungle.2015.BDRip.x264.AC3-playSD","uid":12288383,"size":789410618,"categoryP":"video","categoryS":"movies","magnet":"?xt=urn:btih:562d3a3fe4c1fd8e0347e955a07a7745a4fa51bd&amp;dn=Curious.George.3.Back.to.the.Jungle.2015.BDRip.x264.AC3-playSD&amp;tr=udp%3A%2F%2Ftracker.openbittorrent.com%3A80&amp;tr=udp%3A%2F%2Fopen.demonii.com%3A1337&amp;tr=udp%3A%2F%2Ftracker.coppersurfer.tk%3A6969&amp;tr=udp%3A%2F%2Fexodus.desync.com%3A6969","seeders":1,"leechers":0,"uploader":"TvTeam","files":5,"time":1440511603,"description":"------------------------------------------------------------------------\n\n &lt;a href=&quot; https://www.torrenting.com&quot; rel=&quot;nofollow&quot; target=&quot;_NEW&quot;&gt; https://www.torrenting.com&lt;/a&gt;\n\nSign up is OPEN - for time being. Come and have fun.\n\n------------------------------------------------------------------------General\nUnique ID                                : 218938640882793560858857576607210767204 (0xA4B60C66F45C8683BF599E2A7CA38364)\nComplete name                            : Curious.George.3.Back.to.the.Jungle.2015.BDRip.x264.AC3-playSD.mkv\nFormat                                   : Matroska\nFormat version                           : Version 2\nFile size                                : 743 MiB\nDuration                                 : 1h 20mn\nOverall bit rate                         : 1 291 Kbps\nEncoded date                             : UTC \nWriting application                      : HandBrake 0.10.2 2015060900\nWriting library                          : Lavf55.12.0\n\nVideo\nID                                       : 1\nFormat                                   : AVC\nFormat/Info                              : Advanced Video Codec\nFormat profile                           : High@L4\nFormat settings, CABAC                   : Yes\nFormat settings, ReFrames                : 5 frames\nCodec ID                                 : V_MPEG4/ISO/AVC\nDuration                                 : 1h 20mn\nBit rate                                 : 881 Kbps\nWidth                                    : 720 pixels\nHeight                                   : 406 pixels\nDisplay aspect ratio                     : 16:9\nOriginal display aspect ratio            : 16:9\nFrame rate mode                          : Constant\nFrame rate                               : 23.976 fps\nColor space                              : YUV\nChroma subsampling                       : 4:2:0\nBit depth                                : 8 bits\nScan type                                : Progressive\nBits/(Pixel*Frame)                       : 0.126\nStream size                              : 508 MiB (68%)\nWriting library                          : x264 core 142 r2479 dd79a61\nEncoding settings                        : cabac=1 / ref=5 / deblock=1:-3:-3 / analyse=0x3:0x133 / me=umh / subme=9 / psy=1 / psy_rd=1.00:0.15 / mixed_ref=1 / me_range=16 / chroma_me=1 / trellis=2 / 8x8dct=1 / cqm=0 / deadzone=21,11 / fast_pskip=0 / chroma_qp_offset=-3 / threads=6 / lookahead_threads=1 / sliced_threads=0 / nr=0 / decimate=1 / interlaced=0 / bluray_compat=0 / constrained_intra=0 / bframes=5 / b_pyramid=2 / b_adapt=2 / b_bias=0 / direct=3 / weightb=1 / open_gop=0 / weightp=1 / keyint=240 / keyint_min=24 / scenecut=40 / intra_refresh=0 / rc_lookahead=50 / rc=crf / mbtree=1 / crf=18.0 / qcomp=0.60 / qpmin=0 / qpmax=69 / qpstep=4 / vbv_maxrate=25000 / vbv_bufsize=31250 / crf_max=0.0 / nal_hrd=none / filler=0 / ip_ratio=1.40 / aq=1:1.00\nDefault                                  : Yes\nForced                                   : No\nColor range                              : Limited\nColor primaries                          : BT.709\nTransfer characteristics                 : BT.709\nMatrix coefficients                      : BT.709\n\nAudio\nID                                       : 2\nFormat                                   : AC-3\nFormat/Info                              : Audio Coding 3\nMode extension                           : CM (complete main)\nFormat settings, Endianness              : Big\nCodec ID                                 : A_AC3\nDuration                                 : 1h 20mn\nBit rate mode                            : Constant\nBit rate                                 : 384 Kbps\nChannel(s)                               : 6 channels\nChannel positions                        : Front: L C R, Side: L R, LFE\nSampling rate                            : 48.0 KHz\nCompression mode                         : Lossy\nDelay relative to video                  : 27ms\nStream size                              : 221 MiB (30%)\nTitle                                    : Surround\nDefault                                  : Yes\nForced                                   : No","torrent":{"xt":"urn:btih:562d3a3fe4c1fd8e0347e955a07a7745a4fa51bd","amp;dn":"Curious.George.3.Back.to.the.Jungle.2015.BDRip.x264.AC3-playSD","amp;tr":["udp%3A%2F%2Ftracker.openbittorrent.com%3A80","udp%3A%2F%2Fopen.demonii.com%3A1337","udp%3A%2F%2Ftracker.coppersurfer.tk%3A6969","udp%3A%2F%2Fexodus.desync.com%3A6969"],"infoHash":"562d3a3fe4c1fd8e0347e955a07a7745a4fa51bd","infoHashBuffer":{"type":"Buffer","data":[86,45,58,63,228,193,253,142,3,71,233,85,160,122,119,69,164,250,81,189]},"announce":[],"urlList":[]}}